<svg xmlns="http://www.w3.org/2000/svg" xmlns:xlink="http://www.w3.org/1999/xlink" width="309" zoomAndPan="magnify" viewBox="0 0 231.75 75.749997" height="101" preserveAspectRatio="xMidYMid meet" version="1.2"><defs><clipPath id="a01ca087c0"><path d="M 0.257812 7.738281 L 230.6875 7.738281 L 230.6875 67.292969 L 0.257812 67.292969 Z M 0.257812 7.738281 "/></clipPath><clipPath id="812237125b"><path d="M 43.671875 23.828125 L 77.472656 23.828125 L 77.472656 52.574219 L 43.671875 52.574219 Z M 43.671875 23.828125 "/></clipPath><clipPath id="1059326712"><path d="M 60.554688 23.828125 L 77.433594 52.574219 L 43.671875 52.574219 Z M 60.554688 23.828125 "/></clipPath><clipPath id="acc45ce172"><path d="M 43.671875 23.828125 L 77.03125 23.828125 L 77.03125 52.234375 L 43.671875 52.234375 Z M 43.671875 23.828125 "/></clipPath><clipPath id="1331598ab6"><path d="M 60.351562 23.828125 L 77.03125 52.234375 L 43.671875 52.234375 Z M 60.351562 23.828125 "/></clipPath></defs><g id="b938c961c0"><g clip-rule="nonzero" clip-path="url(#a01ca087c0)"><path style=" stroke:none;fill-rule:nonzero;fill:#000000;fill-opacity:1;" d="M 0.257812 7.738281 L 230.785156 7.738281 L 230.785156 67.292969 L 0.257812 67.292969 Z M 0.257812 7.738281 "/></g><g clip-rule="nonzero" clip-path="url(#812237125b)"><g clip-rule="nonzero" clip-path="url(#1059326712)"><path style=" stroke:none;fill-rule:nonzero;fill:#ffffff;fill-opacity:1;" d="M 43.671875 23.828125 L 77.472656 23.828125 L 77.472656 52.574219 L 43.671875 52.574219 Z M 43.671875 23.828125 "/></g></g><g clip-rule="nonzero" clip-path="url(#acc45ce172)"><g clip-rule="nonzero" clip-path="url(#1331598ab6)"><path style="fill:none;stroke-width:12;stroke-linecap:butt;stroke-linejoin:miter;stroke:#ffffff;stroke-opacity:1;stroke-miterlimit:4;" d="M 22.577455 -0.00179773 L 45.156506 38.451331 L -0.00159598 38.451331 Z M 22.577455 -0.00179773 " transform="matrix(0.738724,0,0,0.738724,43.673054,23.829453)"/></g></g><g style="fill:#ffffff;fill-opacity:1;"><g transform="translate(84.997308, 51.116797)"><path style="stroke:none" d="M 12.796875 0 L 2.515625 0 L 2.515625 -28.984375 L 12.875 -28.984375 C 15.789062 -28.984375 18.300781 -28.40625 20.40625 -27.25 C 22.519531 -26.09375 24.144531 -24.429688 25.28125 -22.265625 C 26.414062 -20.109375 26.984375 -17.523438 26.984375 -14.515625 C 26.984375 -11.503906 26.410156 -8.910156 25.265625 -6.734375 C 24.128906 -4.566406 22.503906 -2.898438 20.390625 -1.734375 C 18.273438 -0.578125 15.742188 0 12.796875 0 Z M 8.65625 -5.25 L 12.546875 -5.25 C 15.265625 -5.25 17.328125 -5.984375 18.734375 -7.453125 C 20.148438 -8.929688 20.859375 -11.285156 20.859375 -14.515625 C 20.859375 -17.734375 20.148438 -20.070312 18.734375 -21.53125 C 17.328125 -23 15.269531 -23.734375 12.5625 -23.734375 L 8.65625 -23.734375 Z M 8.65625 -5.25 "/></g></g><g style="fill:#ffffff;fill-opacity:1;"><g transform="translate(113.989755, 51.116797)"><path style="stroke:none" d="M 12.3125 0.421875 C 10.082031 0.421875 8.160156 -0.03125 6.546875 -0.9375 C 4.941406 -1.851562 3.703125 -3.144531 2.828125 -4.8125 C 1.960938 -6.488281 1.53125 -8.472656 1.53125 -10.765625 C 1.53125 -13.003906 1.960938 -14.96875 2.828125 -16.65625 C 3.703125 -18.34375 4.925781 -19.660156 6.5 -20.609375 C 8.082031 -21.554688 9.941406 -22.03125 12.078125 -22.03125 C 13.992188 -22.03125 15.722656 -21.625 17.265625 -20.8125 C 18.804688 -20 20.03125 -18.769531 20.9375 -17.125 C 21.84375 -15.488281 22.296875 -13.441406 22.296875 -10.984375 L 22.296875 -9.328125 L 7.484375 -9.328125 L 7.484375 -9.3125 C 7.484375 -7.6875 7.925781 -6.40625 8.8125 -5.46875 C 9.707031 -4.539062 10.90625 -4.078125 12.40625 -4.078125 C 13.414062 -4.078125 14.289062 -4.285156 15.03125 -4.703125 C 15.769531 -5.128906 16.289062 -5.757812 16.59375 -6.59375 L 22.171875 -6.234375 C 21.742188 -4.210938 20.664062 -2.597656 18.9375 -1.390625 C 17.207031 -0.179688 15 0.421875 12.3125 0.421875 Z M 7.484375 -13.0625 L 16.625 -13.0625 C 16.613281 -14.351562 16.195312 -15.421875 15.375 -16.265625 C 14.550781 -17.109375 13.484375 -17.53125 12.171875 -17.53125 C 10.828125 -17.53125 9.726562 -17.09375 8.875 -16.21875 C 8.019531 -15.351562 7.554688 -14.300781 7.484375 -13.0625 Z M 7.484375 -13.0625 "/></g></g><g style="fill:#ffffff;fill-opacity:1;"><g transform="translate(137.815095, 51.116797)"><path style="stroke:none" d="M 8.4375 -28.984375 L 8.4375 0 L 2.40625 0 L 2.40625 -28.984375 Z M 8.4375 -28.984375 "/></g></g><g style="fill:#ffffff;fill-opacity:1;"><g transform="translate(148.658952, 51.116797)"><path style="stroke:none" d="M 13.96875 -21.734375 L 13.96875 -17.21875 L 9.875 -17.21875 L 9.875 -6.6875 C 9.875 -5.851562 10.0625 -5.289062 10.4375 -5 C 10.820312 -4.707031 11.316406 -4.5625 11.921875 -4.5625 C 12.203125 -4.5625 12.484375 -4.585938 12.765625 -4.640625 C 13.046875 -4.691406 13.265625 -4.726562 13.421875 -4.75 L 14.359375 -0.265625 C 14.054688 -0.171875 13.628906 -0.0625 13.078125 0.0625 C 12.535156 0.1875 11.875 0.265625 11.09375 0.296875 C 8.90625 0.390625 7.144531 -0.0820312 5.8125 -1.125 C 4.488281 -2.164062 3.832031 -3.753906 3.84375 -5.890625 L 3.84375 -17.21875 L 0.875 -17.21875 L 0.875 -21.734375 L 3.84375 -21.734375 L 3.84375 -26.953125 L 9.875 -26.953125 L 9.875 -21.734375 Z M 13.96875 -21.734375 "/></g></g><g style="fill:#ffffff;fill-opacity:1;"><g transform="translate(164.146134, 51.116797)"><path style="stroke:none" d="M 8.609375 0.40625 C 6.523438 0.40625 4.800781 -0.132812 3.4375 -1.21875 C 2.070312 -2.300781 1.390625 -3.921875 1.390625 -6.078125 C 1.390625 -7.691406 1.769531 -8.960938 2.53125 -9.890625 C 3.300781 -10.816406 4.304688 -11.492188 5.546875 -11.921875 C 6.785156 -12.347656 8.117188 -12.628906 9.546875 -12.765625 C 11.441406 -12.953125 12.789062 -13.148438 13.59375 -13.359375 C 14.40625 -13.566406 14.8125 -14.019531 14.8125 -14.71875 L 14.8125 -14.8125 C 14.8125 -15.707031 14.53125 -16.398438 13.96875 -16.890625 C 13.414062 -17.378906 12.625 -17.625 11.59375 -17.625 C 10.507812 -17.625 9.644531 -17.382812 9 -16.90625 C 8.363281 -16.4375 7.941406 -15.84375 7.734375 -15.125 L 2.15625 -15.5625 C 2.570312 -17.550781 3.601562 -19.125 5.25 -20.28125 C 6.894531 -21.445312 9.019531 -22.03125 11.625 -22.03125 C 13.238281 -22.03125 14.75 -21.773438 16.15625 -21.265625 C 17.5625 -20.753906 18.691406 -19.957031 19.546875 -18.875 C 20.410156 -17.789062 20.84375 -16.390625 20.84375 -14.671875 L 20.84375 0 L 15.125 0 L 15.125 -3.015625 L 14.96875 -3.015625 C 14.4375 -2.003906 13.644531 -1.179688 12.59375 -0.546875 C 11.539062 0.0859375 10.210938 0.40625 8.609375 0.40625 Z M 10.328125 -3.75 C 11.648438 -3.75 12.734375 -4.132812 13.578125 -4.90625 C 14.429688 -5.675781 14.859375 -6.628906 14.859375 -7.765625 L 14.859375 -10.078125 C 14.628906 -9.921875 14.265625 -9.78125 13.765625 -9.65625 C 13.265625 -9.53125 12.734375 -9.421875 12.171875 -9.328125 C 11.617188 -9.242188 11.117188 -9.164062 10.671875 -9.09375 C 9.617188 -8.945312 8.765625 -8.648438 8.109375 -8.203125 C 7.460938 -7.765625 7.140625 -7.117188 7.140625 -6.265625 C 7.140625 -5.441406 7.441406 -4.816406 8.046875 -4.390625 C 8.648438 -3.960938 9.410156 -3.75 10.328125 -3.75 Z M 10.328125 -3.75 "/></g></g></g></svg>